<?xml version="1.0" encoding="UTF-8" standalone="no"?>
<!-- Created with Inkscape (http://www.inkscape.org/) -->

<svg
   xmlns:dc="http://purl.org/dc/elements/1.1/"
   xmlns:cc="http://creativecommons.org/ns#"
   xmlns:rdf="http://www.w3.org/1999/02/22-rdf-syntax-ns#"
   xmlns:svg="http://www.w3.org/2000/svg"
   xmlns="http://www.w3.org/2000/svg"
   xmlns:sodipodi="http://sodipodi.sourceforge.net/DTD/sodipodi-0.dtd"
   xmlns:inkscape="http://www.inkscape.org/namespaces/inkscape"
   width="669.28857mm"
   height="669.28857mm"
   viewBox="0 0 669.28858 669.28858"
   version="1.1"
   id="svg4553"
   inkscape:export-filename="C:\Users\km594\OneDrive\Pictures\logo-2530x2530.png"
   inkscape:export-xdpi="96"
   inkscape:export-ydpi="96"
   inkscape:version="0.92.4 (5da689c313, 2019-01-14)"
   sodipodi:docname="logo-new.svg">
  <defs
     id="defs4547">
    <marker
       inkscape:isstock="true"
       style="overflow:visible"
       id="Arrow1Lend"
       refX="0"
       refY="0"
       orient="auto"
       inkscape:stockid="Arrow1Lend">
      <path
         transform="matrix(-0.8,0,0,-0.8,-10,0)"
         style="fill:#000000;fill-opacity:1;fill-rule:evenodd;stroke:#000000;stroke-width:1.00000003pt;stroke-opacity:1"
         d="M 0,0 5,-5 -12.5,0 5,5 Z"
         id="path11784"
         inkscape:connector-curvature="0" />
    </marker>
    <marker
       inkscape:isstock="true"
       style="overflow:visible"
       id="Arrow1Mstart"
       refX="0"
       refY="0"
       orient="auto"
       inkscape:stockid="Arrow1Mstart">
      <path
         transform="matrix(0.4,0,0,0.4,4,0)"
         style="fill:#000000;fill-opacity:1;fill-rule:evenodd;stroke:#000000;stroke-width:1.00000003pt;stroke-opacity:1"
         d="M 0,0 5,-5 -12.5,0 5,5 Z"
         id="path11787"
         inkscape:connector-curvature="0" />
    </marker>
    <marker
       inkscape:isstock="true"
       style="overflow:visible"
       id="Arrow1Send"
       refX="0"
       refY="0"
       orient="auto"
       inkscape:stockid="Arrow1Send">
      <path
         transform="matrix(-0.2,0,0,-0.2,-1.2,0)"
         style="fill:#000000;fill-opacity:1;fill-rule:evenodd;stroke:#000000;stroke-width:1.00000003pt;stroke-opacity:1"
         d="M 0,0 5,-5 -12.5,0 5,5 Z"
         id="path11796"
         inkscape:connector-curvature="0" />
    </marker>
    <marker
       inkscape:isstock="true"
       style="overflow:visible"
       id="marker12157"
       refX="0"
       refY="0"
       orient="auto"
       inkscape:stockid="Arrow1Lstart">
      <path
         transform="matrix(0.8,0,0,0.8,10,0)"
         style="fill:#000000;fill-opacity:1;fill-rule:evenodd;stroke:#000000;stroke-width:1.00000003pt;stroke-opacity:1"
         d="M 0,0 5,-5 -12.5,0 5,5 Z"
         id="path12155"
         inkscape:connector-curvature="0" />
    </marker>
    <marker
       inkscape:isstock="true"
       style="overflow:visible"
       id="Arrow1Lstart"
       refX="0"
       refY="0"
       orient="auto"
       inkscape:stockid="Arrow1Lstart">
      <path
         transform="matrix(0.8,0,0,0.8,10,0)"
         style="fill:#000000;fill-opacity:1;fill-rule:evenodd;stroke:#000000;stroke-width:1.00000003pt;stroke-opacity:1"
         d="M 0,0 5,-5 -12.5,0 5,5 Z"
         id="path11781"
         inkscape:connector-curvature="0" />
    </marker>
    <filter
       height="1.1536"
       y="-0.076800004"
       width="1.1536"
       x="-0.076800004"
       id="filter10309"
       style="color-interpolation-filters:sRGB"
       inkscape:collect="always">
      <feGaussianBlur
         id="feGaussianBlur10311"
         stdDeviation="16.553986"
         inkscape:collect="always" />
    </filter>
    <filter
       height="1.1536"
       y="-0.076800004"
       width="1.1536"
       x="-0.076800004"
       id="filter10333"
       style="color-interpolation-filters:sRGB"
       inkscape:collect="always">
      <feGaussianBlur
         id="feGaussianBlur10335"
         stdDeviation="18.565564"
         inkscape:collect="always" />
    </filter>
  </defs>
  <sodipodi:namedview
     id="base"
     pagecolor="#ffffff"
     bordercolor="#666666"
     borderopacity="1.0"
     inkscape:pageopacity="0.0"
     inkscape:pageshadow="2"
     inkscape:zoom="0.35"
     inkscape:cx="1415.2876"
     inkscape:cy="1327.6522"
     inkscape:document-units="mm"
     inkscape:current-layer="layer1"
     showgrid="false"
     inkscape:window-width="1920"
     inkscape:window-height="1001"
     inkscape:window-x="-9"
     inkscape:window-y="-9"
     inkscape:window-maximized="1" />
  <metadata
     id="metadata4550">
    <rdf:RDF>
      <cc:Work
         rdf:about="">
        <dc:format>image/svg+xml</dc:format>
        <dc:type
           rdf:resource="http://purl.org/dc/dcmitype/StillImage" />
        <dc:title></dc:title>
      </cc:Work>
    </rdf:RDF>
  </metadata>
  <g
     inkscape:label="Layer 1"
     inkscape:groupmode="layer"
     id="layer1"
     transform="translate(200.13618,196.62463)">
    <g
       id="layer1-0"
       inkscape:label="Layer 1"
       transform="translate(-1999.7995,2894.8749)">
      <circle
         inkscape:export-ydpi="96"
         inkscape:export-xdpi="96"
         style="opacity:0.06100003;fill:#010000;fill-opacity:1;stroke:none;stroke-width:1.82112706;stroke-linejoin:round;stroke-miterlimit:4;stroke-dasharray:none;stroke-opacity:1;filter:url(#filter10333)"
         id="circle12380"
         cx="2134.3076"
         cy="-2756.8552"
         r="290.08694" />
      <circle
         inkscape:export-ydpi="96"
         inkscape:export-xdpi="96"
         r="258.65604"
         cy="-2756.8552"
         cx="2134.3076"
         id="circle12382"
         style="opacity:0;fill:#000000;fill-opacity:1;stroke:none;stroke-width:1.62391806;stroke-linejoin:round;stroke-miterlimit:4;stroke-dasharray:none;stroke-opacity:1;filter:url(#filter10309)" />
      <circle
         inkscape:export-ydpi="96"
         inkscape:export-xdpi="96"
         style="opacity:0.378;fill:none;fill-opacity:0.57286431;stroke:#000000;stroke-width:13.22916698;stroke-linejoin:round;stroke-miterlimit:4;stroke-dasharray:1.32291667, 1.32291667;stroke-dashoffset:0;stroke-opacity:1;paint-order:normal"
         id="circle12384"
         cx="2134.3076"
         cy="-2756.8552"
         r="290.08694" />
      <g
         inkscape:export-ydpi="96"
         inkscape:export-xdpi="96"
         id="g12404"
         transform="translate(2334.8666,-2467.1451)"
         style="opacity:0.828">
        <g
           id="g12392"
           transform="translate(-529.94016,231.7656)"
           style="stroke:none;stroke-width:1.32291663;stroke-linejoin:round;stroke-miterlimit:4;stroke-dasharray:none;stroke-opacity:1">
          <path
             inkscape:connector-curvature="0"
             id="path12386"
             d="m 532.61328,-654.28815 c -105.50247,0 -191.02916,62.072 -191.02915,138.64167 0,0.97525 0.0173,1.94772 0.0449,2.91817 h -5.1e-4 c -0.027,0.9502 -0.0437,1.9024 -0.0444,2.85719 v 0.061 c -10e-6,76.56968 85.52665,138.64167 191.02915,138.64167 -52.03849,0 -96.32156,-38.44108 -112.82876,-92.13701 -8.98996,-16.9008 -12.36297,-33.51093 -11.62462,-49.42282 2e-5,-2.7e-4 0,-7.7e-4 0,-10e-4 0,-2.6e-4 2e-5,-7.6e-4 0,-10e-4 -0.73798,-15.91173 2.63548,-32.52171 11.62566,-49.4223 0.009,-0.0285 0.0171,-0.0573 0.0258,-0.0858 l 0.0346,-0.0284 c 16.28389,-30.52851 50.90763,-62.00233 112.76727,-92.02126 z"
             style="opacity:0.5;fill:#0049ff;fill-opacity:1;stroke:none;stroke-width:1.32291663;stroke-linejoin:round;stroke-miterlimit:4;stroke-dasharray:none;stroke-opacity:1" />
          <path
             inkscape:connector-curvature="0"
             id="path12388"
             d="m 532.61365,-654.28822 c -104.16204,0 -188.84901,60.50519 -190.9842,135.73073 v 5.82911 l -0.004,5.6875 c 2.03327,75.29095 86.76066,135.87233 190.98782,135.87233 -96.18641,-46.67687 -126.52705,-96.87171 -124.45338,-141.55983 3e-5,-3.5e-4 0,-7.3e-4 0,-10e-4 0,-3.5e-4 3e-5,-7.3e-4 0,-10e-4 -2.07264,-44.6876 28.26847,-94.88165 124.45338,-141.55777 z"
             style="opacity:0.5;fill:#0049ff;fill-opacity:1;stroke:none;stroke-width:1.32291663;stroke-linejoin:round;stroke-miterlimit:4;stroke-dasharray:none;stroke-opacity:1" />
          <path
             sodipodi:nodetypes="ccccc"
             inkscape:connector-curvature="0"
             id="path12390"
             d="m 524.6639,-654.60544 c -45.37506,0.11964 -83.1056,33.78316 -104.87834,92.45276 22.28006,-37.45898 60.50105,-67.90136 112.82772,-92.13494 v 0 c -2.67457,-0.21927 -5.3249,-0.3242 -7.94991,-0.31729 z"
             style="opacity:0.5;fill:#000000;stroke:none;stroke-width:1.32291663;stroke-linejoin:round;stroke-miterlimit:4;stroke-dasharray:none;stroke-opacity:1" />
        </g>
        <path
           style="opacity:1;fill:#010000;fill-opacity:0.57286431;stroke:none;stroke-width:1.2215811;stroke-linejoin:round;stroke-miterlimit:4;stroke-dasharray:none"
           d="m -188.31069,-465.11846 c -10.88218,2.806 -20.53034,7.5659 -24.49671,21.3227 v 39.11082 112.4868 2.48809 2.4881 146.09975 7.0929 c -3.64698,11.17859 -22.88752,16.39937 -54.19152,18.81079 l 0.89917,0.91688 h 53.29235 c 10.88218,-2.80596 20.53032,-7.56589 24.49671,-21.32266 v -19.55544 -19.55543 -112.48679 -0.0516 -1.21827 -1.21785 -2.48808 -116.18524 -29.91457 -7.0929 c 3.64697,-11.1786 22.88753,-16.3993 54.19151,-18.8107 l -0.89916,-0.917 z"
           id="path12394"
           inkscape:connector-curvature="0" />
        <g
           transform="rotate(180,64.411026,-396.99073)"
           id="g12402"
           style="stroke:none;stroke-width:1.32291663;stroke-linejoin:round;stroke-miterlimit:4;stroke-dasharray:none">
          <path
             style="opacity:0.5;fill:#0049ff;fill-opacity:1;stroke:none;stroke-width:1.32291663;stroke-linejoin:round;stroke-miterlimit:4;stroke-dasharray:none"
             d="m 532.61328,-654.28815 c -105.50247,0 -191.02916,62.072 -191.02915,138.64167 0,0.97525 0.0173,1.94772 0.0449,2.91817 h -5.1e-4 c -0.027,0.9502 -0.0437,1.9024 -0.0444,2.85719 v 0.061 c -10e-6,76.56968 85.52665,138.64167 191.02915,138.64167 -52.03849,0 -96.32156,-38.44108 -112.82876,-92.13701 -8.98996,-16.9008 -12.36297,-33.51093 -11.62462,-49.42282 2e-5,-2.7e-4 0,-7.7e-4 0,-10e-4 0,-2.6e-4 2e-5,-7.6e-4 0,-10e-4 -0.73798,-15.91173 2.63548,-32.52171 11.62566,-49.4223 0.009,-0.0285 0.0171,-0.0573 0.0258,-0.0858 l 0.0346,-0.0284 c 16.28389,-30.52851 50.90763,-62.00233 112.76727,-92.02126 z"
             id="path12396"
             inkscape:connector-curvature="0" />
          <path
             style="opacity:0.5;fill:#0049ff;fill-opacity:1;stroke:none;stroke-width:1.32291663;stroke-linejoin:round;stroke-miterlimit:4;stroke-dasharray:none"
             d="m 532.61365,-654.28822 c -104.16204,0 -188.84901,60.50519 -190.9842,135.73073 v 5.82911 l -0.004,5.6875 c 2.03327,75.29095 86.76066,135.87233 190.98782,135.87233 -96.18641,-46.67687 -126.52705,-96.87171 -124.45338,-141.55983 3e-5,-3.5e-4 0,-7.3e-4 0,-10e-4 0,-3.5e-4 3e-5,-7.3e-4 0,-10e-4 -2.07264,-44.6876 28.26847,-94.88165 124.45338,-141.55777 z"
             id="path12398"
             inkscape:connector-curvature="0" />
          <path
             style="opacity:0.5;fill:#000000;stroke:none;stroke-width:1.32291663;stroke-linejoin:round;stroke-miterlimit:4;stroke-dasharray:none"
             d="m 524.6639,-654.60544 c -45.37506,0.11964 -83.1056,33.78316 -104.87834,92.45276 22.28006,-37.45898 60.50105,-67.90136 112.82772,-92.13494 v 0 c -2.67457,-0.21927 -5.3249,-0.3242 -7.94991,-0.31729 z"
             id="path12400"
             inkscape:connector-curvature="0"
             sodipodi:nodetypes="ccccc" />
        </g>
      </g>
      <path
         inkscape:export-ydpi="96"
         inkscape:export-xdpi="96"
         id="path12406"
         d="m 2146.5559,-2932.2632 c -4.3797,1.1294 -8.5584,2.5763 -12.2483,4.7977 v 170.6108 h 12.2483 v -2.4882 -116.1852 -29.9145 -7.0931 c 3.647,-11.1786 22.8876,-16.3993 54.1915,-18.8107 l -0.8991,-0.9168 z m -12.2483,175.4085 h -12.2484 v 2.4882 146.0996 7.0931 c -3.647,11.1785 -22.8875,16.3994 -54.1915,18.8108 l 0.8992,0.9167 h 53.2923 c 4.3797,-1.1293 8.5584,-2.5767 12.2484,-4.7981 z"
         style="opacity:0.503;fill:#001e6b;fill-opacity:0.74117647;stroke:none;stroke-width:1.2215811;stroke-linejoin:round;stroke-miterlimit:4;stroke-dasharray:none"
         inkscape:connector-curvature="0" />
    </g>
  </g>
</svg>
